<svg width="194" height="77" viewBox="0 0 194 77" fill="none" xmlns="http://www.w3.org/2000/svg">
<rect x="0.5" y="0.5" width="27.4795" height="76" rx="2.5" fill="white" stroke="black"/>
<rect x="27.9246" y="0.5" width="27.4795" height="76" rx="2.5" fill="white" stroke="black"/>
<rect x="55.3494" y="0.5" width="27.4795" height="76" rx="2.5" fill="white" stroke="black"/>
<rect x="82.7739" y="0.5" width="27.4795" height="76" rx="2.5" fill="white" stroke="black"/>
<rect x="110.199" y="0.5" width="27.4795" height="76" rx="2.5" fill="white" stroke="black"/>
<rect x="137.623" y="0.5" width="27.4795" height="76" rx="2.5" fill="white" stroke="black"/>
<rect x="165.048" y="0.5" width="27.4795" height="76" rx="2.5" fill="white" stroke="black"/>
<rect x="19.4863" y="0.5" width="17.9863" height="60.1781" rx="2.5" fill="black" stroke="black"/>
<rect x="46.9109" y="0.5" width="17.9863" height="60.1781" rx="2.5" fill="black" stroke="black"/>
<rect x="101.76" y="0.5" width="17.9863" height="60.1781" rx="2.5" fill="black" stroke="black"/>
<rect x="129.185" y="0.5" width="17.9863" height="60.1781" rx="2.5" fill="black" stroke="black"/>
<rect x="156.61" y="0.5" width="17.9863" height="60.1781" rx="2.5" fill="black" stroke="black"/>
</svg>
